<?xml version="1.0" ?><!DOCTYPE svg  PUBLIC '-//W3C//DTD SVG 1.1//EN'  'http://www.w3.org/Graphics/SVG/1.1/DTD/svg11.dtd'><svg viewBox="0 0 512 512" xmlns="http://www.w3.org/2000/svg" xmlns:xlink="http://www.w3.org/1999/xlink"><style>:root>svg{display:none}:root>svg:target{display:block}</style><svg id="google-gmail" style="enable-background:new 0 0 150 150" version="1.1" viewBox="0 0 150 150" xml:space="preserve" xmlns="http://www.w3.org/2000/svg"><style>.st0{fill:#1a73e8}.st1{fill:#ea4335}.st2{fill:#4285f4}.st3{fill:#fbbc04}.st4{fill:#34a853}.st10{fill:#1565c0}.st11{fill:#2e7d32}.st12{fill:#f6b704}.st13{fill:#e54335}.st14{fill:#4280ef}.st15{fill:#34a353}.st16{clip-path:url(#SVGID_2_)}.st17{fill:#188038}.st18,.st19{opacity:.2;fill:#fff;enable-background:new}.st19{opacity:.3;fill:#0d652d}.st20{clip-path:url(#SVGID_4_)}.st21{opacity:.3;fill:url(#_45_shadow_1_);enable-background:new}.st22{clip-path:url(#SVGID_6_)}.st23{fill:#fa7b17}.st24,.st25,.st26{opacity:.3;fill:#174ea6;enable-background:new}.st25,.st26{fill:#a50e0e}.st26{fill:#e37400}.st27{fill:url(#Finish_mask_1_)}.st28{fill:#fff}.st29{fill:#0c9d58}.st30,.st31{opacity:.2;fill:#004d40;enable-background:new}.st31{fill:#3e2723}.st32{fill:#ffc107}.st33{fill:#1a237e;enable-background:new}.st33,.st34{opacity:.2}.st35{fill:#1a237e}.st36{fill:url(#SVGID_7_)}.st37{fill:#fbbc05}.st38{clip-path:url(#SVGID_9_);fill:#e53935}.st39{clip-path:url(#SVGID_11_);fill:#fbc02d}.st40{clip-path:url(#SVGID_13_);fill:#e53935}.st41{clip-path:url(#SVGID_15_);fill:#fbc02d}</style><path d="m121.1 57.9-22 16.4v35.8h15.4c3.6 0 6.6-2.9 6.6-6.6V57.9z" style="fill:#4caf50"/><path d="m28.9 57.9 21.9 16.5v35.8H35.5c-3.6 0-6.6-2.9-6.6-6.6V57.9z" style="fill:#1e88e5"/><path style="fill:#e53935" d="M99.1 46.9 75 65 50.9 46.9v27.4L75 92.4l24.1-18.1z"/><path d="M28.9 49.3v8.6l21.9 16.5V46.9L44 41.8c-1.6-1.2-3.6-1.9-5.7-1.9-5.2 0-9.4 4.2-9.4 9.4z" style="fill:#c62828"/><path d="M121.1 49.3v8.6l-22 16.4V46.9l6.9-5.1c1.6-1.2 3.6-1.9 5.7-1.9 5.2 0 9.4 4.2 9.4 9.4z" style="fill:#fbc02d"/></svg><svg viewBox="0 0 512 512" xml:space="preserve" id="google-icons" xmlns="http://www.w3.org/2000/svg"><path d="M42.4 145.9c15.5-32.3 37.4-59.6 65-82.3 37.4-30.9 80.3-49.5 128.4-55.2 56.5-6.7 109.6 4 158.7 33.4 12.2 7.3 23.6 15.6 34.5 24.6 2.7 2.2 2.4 3.5.1 5.7-22.3 22.2-44.6 44.4-66.7 66.8-2.6 2.6-4 2.4-6.8.3-64.8-49.9-159.3-36.4-207.6 29.6-8.5 11.6-15.4 24.1-20.2 37.7-.4 1.2-1.2 2.3-1.8 3.5-12.9-9.8-25.9-19.6-38.7-29.5-15-11.5-30-23-44.9-34.6z" fill="#E94335"/><path d="M126 303.8c4.3 9.5 7.9 19.4 13.3 28.3 22.7 37.2 55.1 61.1 97.8 69.6 38.5 7.7 75.5 2.5 110-16.8 1.2-.6 2.4-1.2 3.5-1.8.6.6 1.1 1.3 1.7 1.8 25.8 20 51.7 40 77.5 60-12.4 12.3-26.5 22.2-41.5 30.8-43.5 24.8-90.6 34.8-140.2 31-61.8-4.8-115.1-29.2-159.1-73.2-19.3-19.3-35.2-41.1-46.7-66 10.7-8.2 21.4-16.3 32.1-24.5 17.2-13.1 34.4-26.1 51.6-39.2z" fill="#34A853"/><path d="M429.9 444.9c-25.8-20-51.7-40-77.5-60-.6-.5-1.2-1.2-1.7-1.8 8.9-6.9 18-13.6 25.3-22.4 12.2-14.6 20.3-31.1 24.5-49.6.5-2.3.1-3.1-2.2-3-1.2.1-2.3 0-3.5 0-40.8 0-81.7-.1-122.5.1-4.5 0-5.5-1.2-5.4-5.5.2-29 .2-58 0-87 0-3.7 1-4.7 4.7-4.7 74.8.1 149.6.1 224.5 0 3.2 0 4.5.8 5.3 4.2 6.1 27.5 5.7 55.1 2 82.9-3 22.2-8.4 43.7-16.7 64.5-12.3 30.7-30.4 57.5-54.2 80.5-.9.7-1.8 1.2-2.6 1.8z" fill="#4285F3"/><path d="M126 303.8c-17.2 13.1-34.4 26.1-51.6 39.2-10.7 8.1-21.4 16.3-32.1 24.5-8.3-15.4-13.7-31.7-18.1-48.5-8.4-32.5-9.7-65.5-5.1-98.6 3.6-26 11.1-51 23.2-74.4 15 11.5 29.9 23.1 44.9 34.6 12.9 9.9 25.8 19.7 38.7 29.5-2.2 10.7-5.3 21.2-6.3 32.2-1.8 20 .1 39.5 5.8 58.7.4.8.5 1.8.6 2.8z" fill="#FABB06"/></svg><svg style="shape-rendering:geometricPrecision;text-rendering:geometricPrecision;image-rendering:optimizeQuality;fill-rule:evenodd;clip-rule:evenodd" viewBox="0 0 261 261" xml:space="preserve" id="telegram-icons" xmlns="http://www.w3.org/2000/svg"><defs><style>.cfil4{fill:#1a82b7}</style></defs><g id="cLayer_x0020_1"><g id="c_445047880"><rect height="261" rx="28" ry="28" width="261" style="fill:#20a0e1"/><path d="M172 100c1-2 3-2 3-5-4 0-7 3-9 4l-67 42 13 41c2-2 2-4 2-8 0-2 1-6 1-8v-7c1-1 1-2 1-4v-3c1-2 2-1 3-3 15-16 36-34 53-49z" style="fill:#ccd8e6"/><path d="m66 129 33 12 70-44c2-1 4-2 6-2 0 3-4 6-6 8-15 13-40 32-53 47l12 9c2 0 7 5 8 6 2 1 10 7 11 9 2 0 2 1 3 2l10 7c4 3 8 8 15 3l22-100c3-17-5-14-16-10L69 121c-4 2-8 7-3 8z" style="fill:#fefefe"/><path d="m112 182 1 1c2 0 4-1 6-3l17-15c-1-1-6-6-8-6l-12-9-4 32z" style="fill:#abbdd5"/><path class="cfil4" d="m261 139-65-65c2 2 2 5 1 12l-22 100c-7 5-11 0-15-3l-10-7c-1-1-1-2-3-2-1-2-9-8-11-9l-17 15-6 3 79 78h41l28-28v-94zM66 129l43 44-10-32z"/></g></g></svg><svg style="shape-rendering:geometricPrecision;text-rendering:geometricPrecision;image-rendering:optimizeQuality;fill-rule:evenodd;clip-rule:evenodd" viewBox="0 0 643 643" xml:space="preserve" id="whatsapp-icons" xmlns="http://www.w3.org/2000/svg"><defs><style>.dfil2{fill:#229000}</style></defs><g id="dLayer_x0020_1"><g id="d_444245648"><rect height="643" rx="69" ry="69" width="643" style="fill:#2ab200"/><path d="M325 100c120 0 217 97 217 216 0 120-97 217-217 217-38 0-75-10-106-27l-118 37 37-116c-19-32-30-70-30-111 0-119 97-216 217-216zm-50 200s16 26 42 47c26 20 40 24 40 24s23-29 26-29c3-1 23 8 32 13 8 4 20 11 20 14 0 2-1 20-7 27-6 6-23 22-39 20-78-6-150-77-163-129-2-9-1-44 6-53 8-9 13-15 23-16s16 0 19 7c4 7 19 41 20 45s-20 24-19 30zm-31 178c24 12 52 19 81 19 100 0 180-81 180-181 0-99-80-180-180-180s-181 81-181 180c0 39 13 75 33 104l-20 69 69-21 18 10z" style="fill:#fff"/><path class="dfil2" d="M542 316c0 167-180 270-323 190l-118 37 100 100h372l70-70V334L506 197c22 34 36 75 36 119z"/><path class="dfil2" d="M177 420zm67 58c118 59 261-26 261-162 0-99-80-180-180-180-147 0-231 166-148 284l-20 69 69-21 18 10zm145-62c-78-6-150-77-163-129-5-21 1-66 29-69 10-1 16 0 19 7 4 7 19 41 20 45s-20 24-19 30c11 19 53 64 82 71 28-35 21-35 58-16 8 4 20 11 20 14 0 30-27 49-46 47z"/></g></g></svg></svg>